<?xml version="1.0" encoding="UTF-8" standalone="no"?>
<svg
   id="svg28"
   version="1.1"
   viewBox="0 0 560 400"
   stroke-miterlimit="1.41421"
   stroke-linejoin="round"
   fill-rule="evenodd"
   clip-rule="evenodd"
   xmlns:xlink="http://www.w3.org/1999/xlink"
   xmlns="http://www.w3.org/2000/svg"
   xmlns:svg="http://www.w3.org/2000/svg">
  <defs
     id="defs32" />
  <path
     style="fill:none;stroke:#1f1f1f"
     d="m 243.08181,132 c -1.30635,-1.51705 -4.90691,-5.87717 -6.19355,-7.37122 L 231,130 c 2.23195,2.2923 4.36647,5.02142 6.35491,7.93791 1.98844,2.91649 3.83079,6.02034 5.47839,9.06209 1.01009,1.8648 1.7683,3.2166 2.8334,5 1.8096,3.03 3.8826,6.3392 6.3333,9 l -6,0.8333 -8,-3.8333 -4.8333,-4 -3.3334,-5 -2.1666,-5 L 227,129 c 2.3888,-0.7166 1.7603,-0.76161 4,0.91819 l 5.80645,-5.37122 c -1.28664,-1.49405 -0.17754,-0.0402 -1.39134,-1.54697 -1.6618,-2.063 -3.22541,-4.0694 -5.41511,-5.8333 -4.9907,-4.0203 -10.0503,-4.6415 -15,-2.1667 0.8927,3.0839 3.8236,4.8252 4,8 0.1535,2.7634 -2.014,6.2356 -2.6667,9 -0.9007,3.815 -0.9192,10.4765 0.5,14 1.2705,3.1543 2.6952,5.2624 5.1667,8 4.4707,4.9521 9.5323,8.3253 15,11.6667 1.4573,0.8906 2.6209,1.3813 4,2.1666 1.7625,1.0037 3.2311,2.0664 5,3 3.3276,1.7563 7.566,3.6164 11,5.3334 4.29,2.1451 7.023,3.6229 11,5.6666 2.724,1.3998 4.466,2.6275 7,3.9997 2.937,1.591 6.045,3.279 9,5.167 3.84,2.453 7.569,5.069 11,7.833 5.634,4.539 11.301,9.99 15.333,16.167 1.381,2.115 2.349,3.697 3.5,6 3.726,7.451 5.988,16.559 5.167,25 -0.591,6.075 -3.217,12.767 -5.833,18 -0.909,1.817 -1.441,3.226 -2.5,5 -2.169,3.631 -5.67,5.614 -8.07894,8.40283 l 0.4484,-13.13916 L 303.333,248 l -2.666,-11 -7.5,-8 -3.334,-5 -2.833,-2.833 -5,-2.167 -5,-3.333 -10,-7.334 -5,-1.5 -11,-7.666 -9,-2.334 -6,-4.666 -8,-3.167 -3,-1 -4.8333,-3.1667 -3.1667,-3.5 -5,-3 -7,-3.3333 -5,-7 -7.8333,-8 L 190,147 188.1667,142 191,126 196.99533,115.07293 C 195.832,116.2681 193.3934,119.5257 192,120.8333 c -2.3763,2.2301 -3.701,2.8488 -5.3333,5.1667 -1.3018,1.8484 -1.9127,3.1587 -2.8334,5 -1.3678,2.7356 -2.6941,5.5868 -3.5,9 -3.3034,13.9908 2.5133,26.9037 11,37 1.5835,1.8838 2.8902,2.6863 4.6667,4.1667 3.5434,2.9528 9.1312,6.9203 13,9.5003 2.7204,1.813 4.3744,2.671 7,4.166 1.7625,1.004 3.2311,2.067 5,3 6.0429,3.19 16.8904,8.279 23,11.334 1.7311,0.865 3.2902,1.693 5,2.666 1.4756,0.841 2.5916,1.551 4,2.334 3.2755,1.819 6.767,3.722 10,5.833 2.026,1.323 4.129,2.93 6,4.333 4.503,3.377 8.762,7.042 12.167,11.667 1.32,1.794 2.016,3.085 3,5 1.321,2.57 2.599,4.405 3.5,7 2.443,7.037 2.168,15.905 0,23 -0.975,3.189 -2.755,6.603 -4.5,10 -0.951,1.85 -1.67,3.217 -2.834,5 -3.536,5.417 -8.436,10.753 -13.333,14.833 -2.464,2.054 -5.241,3.75 -8,5.334 -1.014,0.582 -1.958,1.145 -3,1.666 -1.7325,0.867 -3.2469,1.579 -5,2.334 -2.5091,1.08 -9.2407,3.967 -12,3.5 -1.9749,-0.335 -2.5669,-2.105 -3.6667,-3.667 -1.8302,-2.599 -4.092,-5.661 -6.3333,-8 -2.22,-2.316 -4.6092,-4.241 -7,-6.167 -2.5566,-2.059 -5.1153,-3.99 -8,-5.833 -2.3808,-1.521 -4.608,-2.793 -7,-4.167 -0.9921,-0.569 -1.827,-1.08 -3,-1.666 -1.8399,-0.92 -2.9116,-1.355 -5,-2.167 -1.1494,-0.447 -1.628,-0.519 -3,-1.167 -1.5515,-0.732 -2.1868,-1.178 -4,-1.833 -7.6714,-2.77 -15.6055,-4.584 -24,-6.333 -2.92479,-0.61 -9.74746,-0.755 -8.5,-4.667 1.62179,-5.087 9.0423,-9.628 13.5,-12.167 3.1588,-1.798 5.6375,-2.712 9,-3.833 8.5189,-2.84 17.9937,-3.251 27,-2 4.0316,0.56 9.4034,2.468 13,4.167 1.7944,0.847 3.2687,1.632 5,2.666 3.3821,2.02 6.2807,4.485 9,7.167 2.8302,2.791 5.2735,5.41 7.6667,9 2.5567,3.835 2.9084,5.161 5.3333,9 2.8848,-1.67 5.423,-4.249 7.3333,-7 3.2957,-4.745 5.8387,-10.624 4.3337,-17 -0.439,-1.86 -1.047,-3.326 -2,-5 -2.127,-3.735 -5.2512,-7.569 -8.667,-10.167 -2.2339,-1.699 -4.5225,-3.25 -7,-4.833 -2.7124,-1.733 -4.3709,-2.67 -7,-4.167 -1.7349,-0.988 -3.244,-1.788 -5,-2.666 -4.5099,-2.255 -12.5395,-5.98 -17,-8.334 -1.8425,-0.972 -3.181,-1.964 -5,-3 -2.6511,-1.509 -4.5364,-2.263 -7,-3.666 -5.0059,-2.851 -9.9718,-5.869 -15,-9.5 -2.7622,-1.995 -5.4235,-4.306 -8,-6.5 -1.4199,-1.21 -2.714,-1.881 -4,-3.167 -1.7138,-1.714 -2.4695,-3.223 -4,-5 -2.0909,-2.428 -4.25915,-5.017 -5.83333,-8 -2.0225,-3.8321 -3.2745,-6.1637 -4.5,-10 C 159.47768,170.278 159,165.9867 159,162 c 0,-6.0674 0.0457,-12.1646 1.66667,-18 0.43465,-1.5647 0.89937,-2.5088 1.5,-4 4.67191,-11.5992 14.47073,-21.3947 24.83333,-29.1667 5.592,-4.194 11.0379,-7.3512 17,-10.1666 1.9348,-0.9137 3.0761,-1.7849 5,-2.6667 6.0887,-2.7907 12.2075,-5.06917 19,-7.33333 2.7215,-0.90716 6.3,-2.5 9,-2.5 4.1793,0 5.4237,4.9796 8,7.83333 3.1556,3.4954 6.494,6.863 10,9.8333 3.846,3.2585 8.568,6.3529 13,9 1.785,1.0662 3.162,2.0299 5,3 3.507,1.8508 6.691,2.8799 10,4.1667 1.986,0.7724 3.132,1.3254 5,2 3.309,1.1951 7.528,2.2986 11,3.1667 6.432,1.6079 14.063,1.8451 19,4.8333 -1.394,2.4072 -3.246,4.913 -5.167,6.8333 -1.794,1.7946 -3.645,3.192 -5.833,4.8334 -1.677,1.2574 -3.154,2.1926 -5,3.1666 -2.517,1.3284 -4.492,2.0245 -7,3 -6.903,2.6845 -16.274,3.6577 -24,1.8334 -3.677,-0.8683 -7.087,-2.377 -10,-3.8334 -1.145,-0.5724 -2.062,-1.0762 -3,-1.6666 -1.7647,-1.1111 -2.4857,-1.7942 -4,-3 -4.374,-3.483 -7.29697,-6.96142 -10.91819,-11.1667"
     id="path465" />
</svg>
